<?xml version="1.0" standalone="no"?>
<!DOCTYPE svg PUBLIC "-//W3C//DTD SVG 20010904//EN"
 "http://www.w3.org/TR/2001/REC-SVG-20010904/DTD/svg10.dtd">
<svg version="1.0" xmlns="http://www.w3.org/2000/svg"
 width="500.000000pt" height="500.000000pt" viewBox="0 0 500.000000 500.000000"
 preserveAspectRatio="xMidYMid meet">
<metadata>
Created by potrace 1.14, written by Peter Selinger 2001-2017
</metadata>
<g transform="translate(0.000000,500.000000) scale(0.100000,-0.100000)"
fill="#000000" stroke="none">
<path d="M1361 3313 c-26 -54 -68 -171 -87 -250 -23 -93 -29 -372 -9 -470 46
-237 172 -486 323 -638 l59 -59 -19 -37 c-29 -56 -20 -132 21 -173 l31 -31
808 -2 c628 -2 812 0 831 10 63 32 88 129 50 196 l-20 33 57 59 c135 137 241
323 298 521 33 116 37 144 40 313 3 136 -2 189 -29 318 -9 46 -48 150 -85 227
-6 13 -143 15 -1128 18 l-1122 2 -19 -37z m2130 -63 l66 0 18 -47 18 -47 -39
-34 c-56 -49 -99 -64 -179 -65 -61 -1 -77 3 -130 32 -129 70 -178 72 -304 9
-74 -37 -93 -42 -150 -42 -59 0 -77 5 -157 45 -117 60 -156 59 -273 -2 -70
-36 -90 -42 -148 -43 -61 -1 -77 3 -156 43 -121 61 -164 61 -275 3 -123 -64
-219 -64 -315 1 -57 39 -63 53 -41 105 12 32 22 42 42 44 21 2 1182 1 2023 -2z
m-1979 -281 c100 -29 197 -18 301 36 37 19 82 35 100 35 17 0 64 -16 102 -35
136 -67 240 -69 368 -5 94 46 149 48 212 9 61 -38 122 -54 205 -53 75 1 147
23 210 64 41 27 103 25 152 -4 138 -81 278 -82 416 -4 l52 29 1 -33 c0 -18 3
-44 6 -58 8 -40 8 -219 0 -294 -25 -232 -144 -472 -323 -652 l-82 -82 -732 0
-731 0 -65 61 c-176 165 -312 426 -340 652 -10 78 -11 231 -2 320 4 39 8 74 8
78 0 5 25 -6 55 -23 30 -17 69 -36 87 -41z m1768 -1184 l0 -35 -779 0 -779 0
-4 23 c-2 12 -3 28 0 35 3 9 181 12 783 12 l779 0 0 -35z"/>
<path d="M1909 2749 c-24 -24 -20 -42 22 -112 16 -26 29 -51 29 -55 1 -4 18
-36 40 -71 l38 -64 -35 -76 c-52 -112 -60 -147 -38 -171 10 -11 25 -20 34 -20
9 0 59 24 111 54 l94 54 61 -38 c74 -45 185 -87 275 -103 166 -31 387 33 517
150 57 52 61 73 22 111 l-32 32 26 20 c46 36 36 67 -38 130 -116 97 -246 150
-383 154 -146 5 -268 -39 -423 -152 -16 -12 -32 -3 -146 82 -70 53 -134 96
-140 96 -7 0 -22 -9 -34 -21z m841 -117 c47 -12 162 -70 194 -97 l26 -23 -25
-16 c-41 -27 -43 -62 -6 -100 17 -17 31 -35 31 -38 0 -10 -121 -74 -170 -91
-92 -31 -192 -37 -277 -16 -60 14 -201 79 -245 112 -53 39 -73 42 -123 13 -25
-13 -45 -23 -45 -21 0 2 9 26 19 52 17 42 17 52 5 73 -21 39 -16 44 17 16 29
-25 47 -31 78 -26 15 2 78 46 96 67 16 18 131 74 193 93 60 19 165 20 232 2z"/>
<path d="M2775 2529 c-47 -38 -23 -109 38 -109 27 0 67 33 63 53 -7 38 -20 56
-46 65 -24 9 -34 7 -55 -9z"/>
</g>
</svg>
